<svg xmlns="http://www.w3.org/2000/svg" viewBox="0 0 86.46 86.46"><defs><linearGradient id="a8e3979d8-28ae-43a5-865d-e116305b739a" y1="43.23" x2="382.18" y2="43.23" gradientUnits="userSpaceOnUse"><stop offset="0" stop-color="#c198a6"/><stop offset=".05" stop-color="#b5789c"/><stop offset=".11" stop-color="#a85892"/><stop offset=".18" stop-color="#9e3c89"/><stop offset=".25" stop-color="#952682"/><stop offset=".34" stop-color="#8f157d"/><stop offset=".45" stop-color="#8a0979"/><stop offset=".6" stop-color="#880277"/><stop offset="1" stop-color="#870076"/></linearGradient></defs><g><path d="M19.56 53.2v26.2a43.22 43.22 0 0 1 0-72.33V53.2zm9 30.62a42.11 42.11 0 0 0 14.69 2.64c1.11 0 2.21-.06 3.31-.14l-15-39.47L57.7 84a43 43 0 0 0 8.62-4.2L31.9 44.47l42.3 28.9a43.2 43.2 0 0 0 .11-60.17l-42.41 29L66.24 7l.19-.2a43 43 0 0 0-8.49-4.19l-26.39 37L46.64.15A42.79 42.79 0 0 0 43.23 0a43.06 43.06 0 0 0-14.69 2.57z" fill="url(#a8e3979d8-28ae-43a5-865d-e116305b739a)"/></g></svg>