<?xml version="1.0" standalone="no"?>
<!DOCTYPE svg PUBLIC "-//W3C//DTD SVG 20010904//EN"
 "http://www.w3.org/TR/2001/REC-SVG-20010904/DTD/svg10.dtd">
<svg version="1.0" xmlns="http://www.w3.org/2000/svg"
 width="100" height="100" viewBox="0 0 1600.000000 1598.000000"
 preserveAspectRatio="xMidYMid meet">
<g transform="translate(0.000000,1598.000000) scale(0.100000,-0.100000)"
fill="#9A6AFF" stroke="none">
<path d="M7715 15365 c-5 -3 -60 -9 -121 -14 -93 -7 -118 -13 -153 -35 -22
-14 -41 -33 -41 -41 0 -8 -4 -15 -10 -15 -5 0 -10 -5 -10 -11 0 -6 -7 -25 -15
-42 -13 -28 -15 -399 -18 -3032 -2 -2819 -3 -3003 -20 -3043 -9 -23 -21 -50
-26 -60 -5 -9 -19 -37 -31 -62 -12 -25 -28 -49 -36 -53 -8 -4 -14 -13 -14 -19
0 -6 -12 -25 -27 -43 -16 -18 -50 -65 -78 -104 -27 -39 -53 -71 -57 -71 -5 0
-11 -8 -15 -17 -4 -10 -18 -32 -32 -49 -14 -17 -33 -41 -41 -54 -8 -12 -19
-28 -25 -34 -5 -6 -21 -27 -34 -46 -14 -19 -30 -39 -38 -43 -7 -4 -13 -13 -13
-19 0 -6 -12 -25 -27 -43 -16 -17 -35 -42 -43 -55 -8 -12 -20 -28 -25 -34 -6
-6 -22 -27 -35 -46 -13 -19 -30 -39 -37 -43 -7 -4 -13 -14 -13 -21 0 -7 -13
-25 -30 -41 -16 -16 -30 -33 -30 -37 0 -5 -11 -21 -25 -36 -15 -15 -36 -44
-47 -64 -12 -21 -25 -38 -30 -38 -5 0 -13 -10 -19 -22 -5 -13 -21 -38 -34 -57
-22 -30 -25 -44 -25 -121 l0 -88 45 -61 c25 -33 53 -70 62 -80 10 -11 29 -34
43 -52 14 -18 32 -40 40 -48 8 -9 47 -56 85 -104 39 -48 73 -87 78 -87 4 0 7
-5 7 -11 0 -11 46 -68 95 -119 14 -14 25 -28 25 -32 0 -4 10 -18 23 -31 12
-13 38 -43 57 -67 19 -24 51 -63 70 -86 19 -24 46 -57 60 -75 14 -17 38 -46
53 -63 15 -17 40 -49 55 -71 15 -22 30 -41 35 -43 4 -2 7 -13 7 -25 0 -11 6
-28 13 -36 7 -9 22 -36 32 -61 19 -43 20 -86 23 -890 2 -465 0 -878 -3 -917
-6 -70 -9 -75 -54 -122 -38 -40 -56 -50 -92 -56 -24 -3 -524 -5 -1111 -3
l-1067 3 -36 35 c-19 19 -44 52 -55 75 -19 39 -19 113 -22 4945 -3 4625 -5
4907 -21 4936 -11 21 -27 34 -47 38 -34 6 -130 -11 -130 -24 0 -4 -26 -20 -57
-34 -32 -15 -85 -42 -118 -60 -33 -19 -76 -42 -95 -53 -19 -10 -53 -30 -75
-44 -22 -15 -50 -29 -62 -33 -13 -4 -23 -11 -23 -14 0 -4 -17 -16 -37 -27 -21
-11 -56 -32 -77 -47 -21 -16 -44 -28 -49 -28 -6 0 -17 -7 -26 -15 -23 -22
-150 -105 -161 -105 -5 0 -13 -6 -17 -13 -4 -8 -29 -26 -54 -40 -25 -15 -54
-36 -64 -47 -10 -11 -24 -20 -31 -20 -7 0 -17 -6 -21 -14 -4 -7 -22 -22 -39
-32 -30 -18 -71 -50 -139 -106 -18 -16 -36 -28 -40 -28 -4 0 -18 -10 -30 -22
-12 -13 -40 -37 -61 -54 -75 -61 -109 -89 -114 -94 -3 -3 -25 -22 -50 -43
-104 -90 -166 -146 -224 -204 -34 -35 -68 -63 -74 -63 -7 0 -12 -6 -12 -13 0
-11 -34 -47 -44 -47 -6 0 -76 -71 -76 -78 0 -3 -41 -45 -90 -94 -49 -48 -90
-92 -90 -97 0 -6 -9 -16 -20 -24 -12 -8 -68 -70 -125 -138 -58 -68 -116 -137
-130 -153 -14 -16 -25 -32 -25 -36 0 -4 -13 -19 -30 -33 -16 -15 -30 -34 -30
-42 0 -8 -6 -18 -13 -22 -8 -4 -41 -45 -75 -91 -34 -45 -68 -90 -77 -98 -8 -8
-15 -21 -15 -28 0 -8 -7 -20 -16 -27 -13 -11 -57 -71 -99 -138 -5 -9 -22 -32
-37 -52 -16 -20 -28 -41 -28 -46 0 -5 -13 -24 -30 -43 -16 -19 -29 -40 -30
-46 0 -6 -14 -30 -30 -52 -17 -23 -30 -45 -30 -49 0 -5 -14 -26 -30 -47 -17
-22 -30 -44 -30 -49 0 -5 -13 -29 -30 -54 -16 -24 -30 -50 -30 -58 0 -8 -5
-17 -11 -20 -5 -4 -14 -17 -20 -28 -5 -12 -13 -29 -18 -37 -5 -8 -12 -22 -15
-30 -4 -8 -15 -28 -26 -45 -11 -16 -22 -37 -26 -45 -3 -8 -12 -26 -19 -40 -7
-14 -20 -38 -28 -55 -8 -16 -25 -50 -38 -75 -12 -25 -26 -52 -29 -60 -4 -8
-21 -44 -38 -80 -18 -36 -32 -70 -32 -75 0 -14 -41 -94 -51 -101 -5 -3 -9 -14
-9 -25 0 -11 -13 -49 -30 -84 -16 -35 -30 -68 -30 -73 0 -5 -12 -36 -26 -68
-15 -33 -33 -81 -41 -109 -8 -27 -24 -67 -34 -87 -10 -21 -19 -46 -19 -58 0
-11 -4 -28 -9 -38 -16 -32 -51 -127 -51 -140 0 -18 -29 -113 -41 -136 -6 -10
-14 -39 -19 -65 -5 -25 -15 -68 -24 -96 -8 -27 -20 -68 -25 -90 -5 -22 -20
-80 -32 -130 -12 -49 -26 -112 -31 -140 -5 -27 -22 -115 -38 -195 -16 -80 -31
-170 -34 -200 -3 -30 -13 -100 -21 -155 -53 -353 -79 -958 -56 -1310 7 -99 16
-248 21 -330 5 -83 13 -170 18 -195 6 -25 17 -99 26 -165 21 -151 31 -211 50
-305 9 -41 21 -106 26 -144 5 -38 14 -83 20 -100 20 -65 39 -143 45 -184 3
-24 9 -51 14 -60 5 -9 17 -46 26 -82 9 -36 29 -106 46 -157 16 -51 29 -100 29
-109 0 -9 6 -30 14 -47 26 -59 46 -117 46 -133 0 -14 30 -90 50 -126 6 -10 10
-25 10 -33 0 -9 13 -48 30 -87 16 -38 30 -77 30 -86 0 -8 6 -23 13 -31 7 -9
21 -36 31 -61 45 -112 182 -416 208 -460 5 -8 22 -42 38 -75 16 -33 48 -91 70
-130 22 -38 47 -86 56 -105 9 -19 27 -49 40 -67 13 -17 24 -37 24 -43 0 -7 14
-29 30 -50 17 -21 30 -44 30 -51 1 -8 14 -30 30 -49 17 -19 30 -38 30 -43 0
-5 13 -26 30 -47 16 -21 30 -45 30 -53 0 -9 6 -20 14 -24 8 -4 24 -26 37 -48
12 -22 32 -51 45 -65 12 -14 25 -35 29 -48 3 -12 10 -22 15 -22 5 0 19 -17 31
-37 13 -21 28 -43 34 -50 30 -36 35 -43 35 -51 0 -4 13 -21 30 -37 16 -16 30
-34 30 -41 0 -7 6 -17 13 -21 11 -7 70 -80 162 -201 11 -15 30 -35 43 -45 12
-10 22 -24 22 -31 0 -7 14 -22 30 -34 17 -13 30 -27 30 -31 0 -5 15 -24 32
-43 18 -18 69 -74 113 -123 101 -113 344 -355 355 -355 5 0 25 -16 44 -35 20
-19 39 -35 43 -35 4 0 27 -17 49 -38 79 -71 108 -94 146 -113 35 -18 80 -60
216 -200 77 -79 100 -99 114 -99 7 0 21 -9 30 -20 9 -10 36 -32 60 -47 24 -15
47 -33 51 -40 4 -7 13 -13 19 -13 6 0 26 -13 45 -30 18 -16 40 -30 48 -30 7 0
15 -3 17 -8 3 -8 103 -78 146 -102 15 -8 29 -17 32 -20 12 -12 70 -50 76 -50
4 0 21 -10 38 -23 17 -13 51 -34 76 -46 25 -13 49 -29 53 -37 4 -8 17 -14 27
-14 10 0 22 -5 25 -11 4 -5 17 -14 28 -20 12 -5 29 -13 37 -18 8 -5 22 -12 30
-15 8 -4 29 -15 45 -26 17 -11 37 -22 45 -26 8 -3 31 -14 50 -25 19 -10 100
-51 180 -89 80 -39 171 -84 202 -101 32 -16 64 -29 70 -29 7 0 40 -13 73 -29
85 -41 208 -91 223 -91 7 0 40 -13 75 -29 34 -15 89 -36 122 -46 33 -10 66
-23 73 -28 7 -5 29 -13 50 -17 20 -4 71 -19 112 -33 41 -14 102 -33 135 -42
33 -9 67 -21 76 -25 9 -5 34 -11 55 -15 47 -7 135 -31 187 -51 20 -8 50 -14
66 -14 25 0 122 -23 211 -49 19 -6 51 -11 70 -11 19 0 64 -6 100 -14 147 -32
179 -38 260 -46 106 -10 245 -27 330 -41 182 -28 1101 -34 1315 -8 44 5 134
17 200 25 66 9 158 19 205 23 83 8 218 32 291 51 20 6 51 10 68 10 18 0 82 13
144 29 62 15 133 31 159 34 26 4 56 11 65 16 21 11 88 29 158 41 28 5 59 13
70 18 31 14 96 35 135 43 19 4 66 19 104 33 38 14 78 26 88 26 11 0 32 6 46
14 53 27 103 46 121 46 11 0 46 13 79 30 34 16 67 30 74 30 15 0 137 50 223
91 33 16 64 29 70 29 10 0 41 15 280 133 181 90 287 145 299 158 6 5 16 9 23
9 13 0 71 36 83 51 3 4 14 8 24 10 29 6 86 95 86 134 0 38 -26 105 -40 105 -6
0 -10 5 -10 11 0 11 -46 68 -95 119 -14 14 -25 28 -25 32 0 4 -10 18 -22 30
-13 13 -39 43 -58 68 -60 76 -109 134 -135 160 -14 14 -25 29 -25 34 0 4 -12
20 -27 35 -16 15 -40 43 -55 62 -65 81 -169 206 -193 229 -14 14 -25 30 -25
34 0 5 -10 19 -22 31 -23 22 -73 82 -112 133 -33 43 -59 73 -83 97 -13 12 -23
27 -23 32 0 5 -10 19 -22 30 -13 11 -37 38 -54 59 -45 55 -136 167 -154 188
-8 10 -26 30 -40 44 -14 15 -29 34 -35 44 -13 21 -171 212 -207 251 -16 16
-28 32 -28 36 0 4 -13 20 -30 36 -16 16 -30 34 -30 40 0 6 -13 21 -30 33 -16
13 -30 27 -30 32 0 5 -10 20 -22 32 -13 13 -39 43 -58 68 -60 76 -109 134
-135 160 -14 14 -25 30 -25 36 0 6 -13 20 -30 32 -16 13 -30 26 -30 31 0 5
-11 21 -25 37 -22 26 -128 153 -185 224 -57 70 -86 105 -100 119 -8 9 -31 37
-50 61 -42 55 -68 86 -97 115 -13 12 -23 27 -23 32 0 5 -10 19 -22 30 -13 11
-37 38 -54 59 -81 100 -148 181 -188 229 -14 17 -66 80 -116 140 -50 61 -107
127 -126 149 -19 21 -34 41 -34 45 0 4 -13 20 -30 36 -16 16 -30 34 -30 40 0
6 -13 21 -30 33 -16 13 -30 27 -30 32 0 5 -10 20 -22 32 -13 13 -39 43 -58 68
-60 76 -109 134 -135 160 -14 14 -25 29 -25 34 0 4 -12 20 -27 35 -16 15 -41
45 -58 66 -54 69 -164 199 -190 225 -14 14 -25 29 -25 34 0 4 -11 19 -25 34
-25 27 -68 79 -135 162 -19 24 -45 54 -57 66 -13 12 -23 26 -23 31 0 5 -10 19
-22 30 -13 11 -37 38 -54 59 -81 100 -148 181 -188 229 -14 17 -66 80 -116
140 -50 61 -107 127 -126 149 -19 21 -34 41 -34 45 0 4 -14 20 -30 36 -17 16
-30 34 -30 40 0 6 -13 21 -30 33 -16 13 -30 27 -30 32 0 5 -10 20 -22 32 -37
38 -91 108 -118 152 -21 34 -25 53 -25 116 0 41 6 86 13 100 26 50 40 72 66
99 14 15 26 32 26 39 0 6 6 15 13 19 8 4 42 46 77 93 34 47 68 89 76 93 8 4
14 14 14 21 0 7 14 25 30 41 17 16 30 34 30 41 0 7 4 14 9 16 4 2 38 43 74 91
37 48 73 95 82 103 8 9 15 18 15 22 0 4 13 21 28 38 15 18 34 42 42 55 8 12
23 29 33 38 9 8 17 20 17 26 0 6 14 24 30 40 17 16 30 34 30 41 0 7 6 17 13
21 7 4 42 46 76 93 35 47 69 89 77 93 8 4 14 13 14 19 0 6 12 25 28 43 46 56
86 107 102 131 24 36 73 97 92 117 10 10 18 21 18 25 0 4 10 19 23 32 12 14
33 41 46 60 14 19 30 39 38 43 7 4 13 14 13 21 0 7 14 25 30 41 17 16 30 34
30 41 0 6 7 18 17 25 9 8 43 50 75 94 33 44 66 84 74 88 8 4 14 13 14 19 0 6
12 25 28 43 53 65 87 108 96 124 8 14 22 32 86 111 11 14 45 59 75 100 31 41
60 77 65 78 6 2 10 9 10 16 0 7 14 25 30 41 17 16 30 34 30 41 0 6 7 18 17 25
9 8 43 50 75 94 33 44 66 84 74 88 8 4 14 13 15 20 0 16 83 76 128 94 20 8 52
22 71 31 32 16 135 17 1270 20 679 2 1255 0 1279 -3 45 -7 101 -51 101 -80 0
-32 -102 -188 -136 -208 -8 -4 -14 -14 -14 -21 0 -7 -13 -25 -30 -41 -16 -16
-30 -34 -30 -41 0 -7 -4 -14 -9 -16 -5 -2 -37 -41 -72 -88 -35 -47 -71 -91
-81 -98 -10 -7 -18 -17 -18 -23 0 -9 -71 -103 -105 -140 -8 -9 -15 -20 -15
-25 0 -6 -13 -23 -30 -39 -16 -16 -30 -34 -30 -41 0 -7 -6 -17 -13 -21 -7 -4
-42 -46 -76 -93 -35 -47 -69 -89 -77 -93 -8 -4 -14 -14 -14 -21 0 -7 -13 -25
-30 -41 -16 -16 -30 -35 -30 -42 0 -7 -4 -13 -8 -13 -4 0 -34 -36 -67 -80 -32
-45 -69 -92 -82 -106 -13 -14 -23 -28 -23 -32 0 -4 -14 -23 -31 -42 -17 -19
-39 -46 -47 -60 -9 -14 -22 -29 -29 -33 -7 -4 -13 -14 -13 -21 0 -7 -13 -25
-30 -41 -16 -16 -30 -34 -30 -41 0 -7 -6 -17 -13 -21 -7 -4 -41 -46 -77 -93
-35 -47 -69 -89 -77 -93 -7 -4 -13 -14 -13 -21 0 -7 -13 -25 -30 -41 -16 -16
-30 -35 -30 -42 0 -7 -4 -13 -9 -13 -4 0 -27 -27 -50 -60 -23 -33 -46 -60 -52
-60 -5 0 -9 -6 -9 -13 0 -7 -12 -27 -27 -44 -16 -17 -48 -59 -73 -93 -25 -33
-53 -68 -62 -78 -10 -9 -18 -21 -18 -28 0 -6 -13 -23 -30 -37 -16 -15 -30 -34
-30 -42 0 -8 -6 -18 -13 -22 -7 -4 -42 -46 -77 -93 -35 -47 -70 -89 -77 -93
-7 -4 -13 -14 -13 -21 0 -7 -13 -25 -30 -41 -16 -16 -30 -32 -30 -36 0 -4 -13
-22 -28 -38 -43 -48 -66 -121 -59 -194 6 -69 34 -135 66 -155 12 -7 21 -17 21
-23 0 -7 10 -22 23 -34 32 -33 67 -72 123 -140 63 -76 92 -110 127 -145 15
-15 27 -32 27 -37 0 -5 10 -19 23 -30 12 -11 38 -40 57 -63 19 -23 46 -55 60
-70 14 -15 41 -47 60 -71 51 -62 232 -273 239 -279 4 -3 26 -29 49 -59 23 -30
70 -85 105 -124 34 -38 66 -77 71 -86 6 -9 20 -24 33 -34 13 -10 23 -24 23
-31 0 -7 14 -22 30 -34 17 -13 30 -29 30 -37 0 -8 4 -15 9 -15 4 0 37 -35 72
-77 35 -43 73 -87 84 -100 11 -12 34 -39 50 -59 17 -20 42 -48 58 -62 15 -15
27 -31 27 -36 0 -5 10 -19 23 -31 25 -25 64 -69 122 -140 22 -27 54 -64 70
-82 17 -19 40 -46 52 -61 21 -26 67 -81 108 -127 11 -13 38 -45 60 -71 22 -26
82 -96 133 -155 50 -59 92 -113 92 -119 0 -6 6 -13 14 -16 8 -3 55 -54 104
-112 49 -59 99 -118 111 -132 12 -14 34 -40 49 -58 15 -18 39 -45 55 -59 15
-15 27 -31 27 -38 0 -6 14 -21 30 -33 17 -13 30 -29 30 -37 0 -8 4 -15 8 -15
5 0 40 -37 77 -82 87 -106 94 -114 128 -148 15 -15 27 -33 27 -38 0 -6 14 -20
30 -32 17 -12 30 -26 30 -32 0 -6 10 -21 23 -33 28 -28 72 -79 117 -135 19
-25 50 -59 68 -78 17 -18 32 -35 32 -38 0 -5 92 -114 140 -166 8 -9 78 -91
155 -182 153 -181 173 -195 263 -182 54 7 77 25 143 112 29 38 59 73 66 77 7
4 13 13 13 19 0 6 12 25 27 43 28 33 124 165 153 210 53 82 95 141 107 148 7
4 13 15 13 24 0 8 14 32 30 53 17 21 30 42 30 46 0 5 14 27 30 48 17 22 30 44
30 49 0 5 14 29 30 54 17 24 30 46 30 49 0 2 12 23 27 47 15 23 36 58 46 77
10 19 32 61 50 93 80 144 297 596 297 618 0 5 14 37 30 71 17 33 30 66 30 74
0 8 14 44 30 81 17 36 30 72 30 80 0 7 4 21 9 31 11 20 41 102 66 182 10 30
21 60 26 65 4 6 10 28 14 50 3 22 10 49 14 60 20 51 34 93 43 130 6 22 19 72
30 110 21 73 28 103 54 220 9 39 20 81 26 95 5 14 14 54 18 90 5 36 18 99 29
139 11 41 20 104 20 140 0 37 8 104 17 151 9 47 20 162 24 255 5 96 15 198 24
235 27 107 40 512 27 806 -15 341 -29 565 -36 583 -8 19 -33 196 -45 314 -5
48 -12 92 -15 97 -7 12 -31 138 -45 233 -5 38 -12 73 -16 79 -9 14 -44 157
-44 180 0 21 -45 181 -91 324 -16 50 -29 99 -29 110 0 10 -6 31 -14 45 -7 14
-21 52 -31 85 -9 32 -30 92 -46 133 -16 40 -29 81 -29 90 0 9 -6 25 -13 36 -7
11 -21 43 -31 70 -29 83 -77 196 -107 258 -16 32 -29 67 -29 77 0 10 -4 21 -9
24 -5 4 -19 27 -31 54 -54 115 -156 320 -177 354 -13 21 -23 42 -23 47 0 6
-13 30 -30 54 -16 25 -30 52 -30 60 0 8 -7 20 -15 27 -8 7 -25 33 -37 59 -13
25 -28 49 -34 53 -6 4 -17 22 -24 40 -8 18 -26 49 -42 69 -15 20 -28 44 -28
53 0 9 -6 19 -14 22 -8 3 -19 19 -25 35 -5 16 -16 28 -23 27 -8 -2 -13 6 -12
19 0 12 -4 19 -9 16 -7 -4 -8 1 -3 13 4 10 4 15 0 11 -8 -7 -56 69 -57 90 0 7
-3 10 -7 8 -8 -5 -48 46 -52 66 -2 7 -10 21 -18 32 -24 32 -72 83 -65 70 3 -7
3 -13 -2 -13 -13 1 -63 48 -63 60 0 6 -5 8 -11 4 -8 -5 -10 2 -6 21 5 29 -16
66 -85 150 -16 18 -28 35 -28 38 0 4 -10 17 -22 29 -13 13 -41 45 -63 72 -22
27 -54 65 -72 85 -17 20 -44 51 -60 69 -15 18 -40 45 -55 60 -16 14 -28 30
-28 34 0 7 -438 448 -445 448 -2 0 -30 25 -62 55 -32 30 -96 86 -143 125 -47
39 -97 82 -112 95 -15 14 -31 25 -37 25 -6 0 -20 14 -33 30 -12 17 -26 30 -31
30 -5 0 -24 12 -42 28 -17 15 -42 34 -55 42 -12 8 -28 20 -34 25 -6 6 -27 22
-46 35 -19 13 -39 30 -43 37 -4 7 -12 13 -17 13 -10 0 -124 79 -151 105 -9 8
-19 15 -22 15 -9 0 -139 86 -158 105 -9 8 -20 15 -26 15 -10 0 -128 74 -168
105 -10 8 -23 15 -28 15 -5 0 -29 14 -54 30 -24 17 -50 30 -58 30 -8 0 -17 5
-20 11 -4 5 -17 15 -28 20 -12 5 -44 23 -72 39 -27 15 -75 40 -105 55 -30 14
-57 29 -60 33 -3 5 -26 16 -53 26 -26 10 -53 24 -60 31 -7 7 -24 16 -37 20
-26 8 -114 48 -213 96 -31 16 -63 29 -70 29 -6 0 -37 13 -67 28 -30 15 -75 34
-100 42 -25 7 -50 17 -56 22 -6 4 -46 20 -90 34 -43 15 -88 33 -99 40 -11 8
-29 14 -41 14 -21 0 -81 21 -114 39 -9 5 -31 12 -50 16 -49 10 -133 37 -145
46 -5 4 -28 10 -50 14 -22 4 -51 10 -65 14 -106 33 -176 52 -245 67 -44 9 -88
21 -97 25 -9 5 -45 13 -80 19 -101 16 -171 30 -198 40 -14 6 -61 14 -105 19
-134 17 -228 31 -260 41 -59 19 -636 59 -710 49 -100 -12 -236 -10 -295 6 -50
13 -248 20 -275 10z"/>
</g>
</svg>
